<svg id="Layer_1" data-name="Layer 1" xmlns="http://www.w3.org/2000/svg" viewBox="0 0 180 180"><title>collection thin</title><path d="M109.81,62c10.16,0,17,7.5,17,16.75s-4,13.17-6.89,16.74c-6.71,8.15-13.42,15.48-28.58,29.25a2,2,0,0,1-2.64,0C73.52,111,66.81,103.66,60.1,95.51c-2.94-3.57-6.89-7.49-6.89-16.74S60,62,70.19,62c5.39,0,12.3,7.81,16.27,12.51a4.64,4.64,0,0,0,7.08,0c4-4.7,10.88-12.51,16.27-12.51m0-14c-7.52,0-14,4.13-19.81,9.72C84.17,52.15,77.71,48,70.19,48a30.38,30.38,0,0,0-31,30.75c0,13.62,6.15,21,9.46,24.9q.33.38.63.75c7.22,8.76,14.44,16.59,30,30.71a16,16,0,0,0,21.46,0c15.53-14.11,22.75-21.94,30-30.7q.3-.37.63-.75c3.3-3.94,9.46-11.28,9.46-24.9a30.38,30.38,0,0,0-31-30.75Z"/><path d="M142.38,25A12.62,12.62,0,0,1,155,37.62V142.38A12.62,12.62,0,0,1,142.38,155H37.62A12.62,12.62,0,0,1,25,142.38V37.62A12.62,12.62,0,0,1,37.62,25H142.38m0-14H37.62A26.65,26.65,0,0,0,11,37.62V142.38A26.65,26.65,0,0,0,37.62,169H142.38A26.65,26.65,0,0,0,169,142.38V37.62A26.65,26.65,0,0,0,142.38,11Z"/></svg>