<svg id="Layer_1" data-name="Layer 1" xmlns="http://www.w3.org/2000/svg" viewBox="0 0 180 180"><title>feed thin</title><path d="M89.43,22.35a10,10,0,0,1,5.87,1.91l61.88,45a10,10,0,0,1,3.62,11.15l-23.64,72.74a10,10,0,0,1-9.48,6.89H51.19a10,10,0,0,1-9.48-6.89L18.07,80.37a10,10,0,0,1,3.62-11.15l61.88-45a10,10,0,0,1,5.86-1.91m0-14a23.89,23.89,0,0,0-14.09,4.58l-61.88,45a23.91,23.91,0,0,0-8.7,26.8l23.63,72.75A23.92,23.92,0,0,0,51.19,174h76.49a23.92,23.92,0,0,0,22.8-16.56l23.63-72.75a23.9,23.9,0,0,0-8.71-26.8l-61.88-45A23.84,23.84,0,0,0,89.43,8.35Z"/></svg>