<svg id="Layer_1" data-name="Layer 1" xmlns="http://www.w3.org/2000/svg" viewBox="0 0 180 180"><title>pause thin</title><path d="M50.23,20.37A9.78,9.78,0,0,1,60,30.14V150.6a9.77,9.77,0,0,1-9.77,9.77H34.77A9.77,9.77,0,0,1,25,150.6V30.14a9.78,9.78,0,0,1,9.77-9.77H50.23m0-14H34.77A23.8,23.8,0,0,0,11,30.14V150.6a23.79,23.79,0,0,0,23.77,23.77H50.23A23.79,23.79,0,0,0,74,150.6V30.14A23.8,23.8,0,0,0,50.23,6.37Z"/><path d="M145.23,20.37A9.78,9.78,0,0,1,155,30.14V150.6a9.77,9.77,0,0,1-9.77,9.77H129.77A9.77,9.77,0,0,1,120,150.6V30.14a9.78,9.78,0,0,1,9.77-9.77h15.46m0-14H129.77A23.8,23.8,0,0,0,106,30.14V150.6a23.79,23.79,0,0,0,23.77,23.77h15.46A23.79,23.79,0,0,0,169,150.6V30.14A23.8,23.8,0,0,0,145.23,6.37Z"/></svg>