<svg id="Layer_1" data-name="Layer 1" xmlns="http://www.w3.org/2000/svg" viewBox="0 0 180 180"><title>save thin</title><path d="M127.69,30C147,30,160,44.29,160,61.91S152.48,87,146.88,93.82c-12.62,15.33-25.23,29.16-53.39,54.83a5.19,5.19,0,0,1-7,0C58.35,123,45.74,109.15,33.12,93.82,27.52,87,20,79.53,20,61.91S33,30,52.31,30c10.25,0,23.4,14.87,31,23.84a8.8,8.8,0,0,0,13.46,0c7.56-9,20.71-23.84,31-23.84m0-14C114,16,101.52,27.12,90,40.2,78.48,27.12,66,16,52.31,16c-13,0-24.84,4.81-33.4,13.55A45.8,45.8,0,0,0,6,61.91c0,21.33,9.06,32.14,15.05,39.28l1.26,1.52C35.55,118.8,48.75,133.16,77.07,159a19.19,19.19,0,0,0,25.86,0c28.32-25.83,41.52-40.19,54.76-56.28l1.26-1.52c6-7.14,15.05-18,15.05-39.28a45.8,45.8,0,0,0-12.91-32.36C152.53,20.81,140.67,16,127.69,16Z"/></svg>