<?xml version="1.0" encoding="utf-8"?>
<!-- Generator: Adobe Illustrator 23.1.1, SVG Export Plug-In . SVG Version: 6.00 Build 0)  -->
<svg version="1.1" id="Layer_1" xmlns="http://www.w3.org/2000/svg" xmlns:xlink="http://www.w3.org/1999/xlink" x="0px" y="0px"
	 viewBox="0 0 180 180" style="enable-background:new 0 0 180 180;" xml:space="preserve">
<title>search-thin</title>
<path d="M36,20.1c-27.6,22.1-32,62.4-9.8,90s62.4,32,90,9.8l46.7,46.6c0,0,0,0,0,0c1.9,1.9,5,1.9,6.8,0l3-3c0,0,0,0,0,0
	c1.9-1.9,1.9-5,0-6.8L126,110c9.1-11.4,14.1-25.5,14.1-40.1c0-35.3-28.7-63.9-64-63.9C61.5,6,47.4,11,36,20.1z M26.1,70
	c0-27.6,22.4-50,50-50s50,22.4,50,50s-22.4,50-50,50S26.1,97.6,26.1,70z"/>
</svg>
