<svg id="Layer_1" data-name="Layer 1" xmlns="http://www.w3.org/2000/svg" viewBox="0 0 180 180"><title>next thin</title><path d="M62.29,15a9.93,9.93,0,0,1,6.91,2.76l67.94,65.57a9.21,9.21,0,0,1,0,13.34L69.2,162.24a10,10,0,0,1-13.82,0L42.86,150.16a9.23,9.23,0,0,1,0-13.35l41.6-40.14a9.21,9.21,0,0,0,0-13.34L42.86,43.19a9.23,9.23,0,0,1,0-13.35L55.38,17.76A9.93,9.93,0,0,1,62.29,15m0-14A23.85,23.85,0,0,0,45.65,7.69L33.14,19.77a23.21,23.21,0,0,0,0,33.49L71.21,90,33.14,126.74a23.21,23.21,0,0,0,0,33.49l12.51,12.08a24,24,0,0,0,33.28,0l67.93-65.56a23.22,23.22,0,0,0,0-33.5L78.93,7.69A23.85,23.85,0,0,0,62.29,1Z"/></svg>