<svg id="Layer_1" data-name="Layer 1" xmlns="http://www.w3.org/2000/svg" viewBox="0 0 180 180"><title>shuffle</title><path d="M149.69,109.59a2.14,2.14,0,0,0-3,0l-6.87,6.87a2.13,2.13,0,0,0,0,3.05l12.62,12.09H137.85c-24.1,0-35.71-19.58-48.48-42.91,12.77-23.33,24.38-42.91,48.48-42.91h14.61L139.84,57.87a2.15,2.15,0,0,0,0,3.06l6.87,6.87a2.14,2.14,0,0,0,3,0L172.8,45.66a9.23,9.23,0,0,0,0-13.35L149.69,10.15a2.15,2.15,0,0,0-3,0l-6.87,6.88a2.13,2.13,0,0,0,0,3.05l12.62,12.09H137.85c-28.62,0-43.92,20.87-56.24,42.49-12.82-22.39-28-42.49-57.41-42.49H5.46A2.26,2.26,0,0,0,3.2,34.45v9.07a2.27,2.27,0,0,0,2.26,2.27H24.2c24.91,0,36.81,19.5,49.66,42.92C61,112.13,49.11,131.63,24.2,131.63H5.46A2.26,2.26,0,0,0,3.2,133.9V143a2.26,2.26,0,0,0,2.26,2.27H24.2c29.43,0,44.59-20.1,57.41-42.49,12.32,21.61,27.62,42.49,56.24,42.49h14.61l-12.62,12.09a2.13,2.13,0,0,0,0,3.05l6.87,6.87a2.14,2.14,0,0,0,3,0L172.8,145.1a9.21,9.21,0,0,0,0-13.34Z"/></svg>