<svg id="Layer_1" data-name="Layer 1" xmlns="http://www.w3.org/2000/svg" viewBox="0 0 180 180"><title>variate thin</title><path d="M43.73,170h92.54A33.77,33.77,0,0,0,170,136.27V43.73A33.77,33.77,0,0,0,136.27,10H43.73A33.77,33.77,0,0,0,10,43.73v7.69a2,2,0,0,0,2,2H21.8a2,2,0,0,0,1.43-.59,2,2,0,0,0,.6-1.43v-7.7a19.9,19.9,0,0,1,19.9-19.9h92.54a19.91,19.91,0,0,1,19.9,19.9v92.54a19.92,19.92,0,0,1-19.9,19.9H43.73a19.9,19.9,0,0,1-19.9-19.9V106.76l31.75,13.6a2,2,0,0,0,2.82-1.85V107.86A2,2,0,0,0,57.17,106L12.82,87a2,2,0,0,0-.8-.16,2,2,0,0,0-2,2v47.42A33.77,33.77,0,0,0,43.73,170Z"/></svg>